<!DOCTYPE svg PUBLIC "-//W3C//DTD SVG 1.1//EN" "http://www.w3.org/Graphics/SVG/1.1/DTD/svg11.dtd">
<!-- Uploaded to: SVG Repo, www.svgrepo.com, Transformed by: SVG Repo Mixer Tools -->
<svg fill="#dddddd" height="800px" width="800px" version="1.1" id="Layer_1" xmlns="http://www.w3.org/2000/svg" xmlns:xlink="http://www.w3.org/1999/xlink" viewBox="0 0 512 512" xml:space="preserve" stroke="#dddddd">
<g id="SVGRepo_bgCarrier" stroke-width="0"/>
<g id="SVGRepo_tracerCarrier" stroke-linecap="round" stroke-linejoin="round"/>
<g id="SVGRepo_iconCarrier"> <g> <g> <path d="M427.023,324.944H264.017v-14.317l36.681-36.681c5,1.008,10.047,1.506,15.068,1.506c20.046,0,39.671-7.872,54.149-22.351 c19.218-19.219,26.796-47.499,19.776-73.807c-0.74-2.773-2.906-4.939-5.679-5.679c-26.308-7.021-54.588,0.558-73.807,19.776 c-18.105,18.105-25.874,44.253-20.844,69.217l-25.343,25.346v-86.238c21.208-14.096,34.205-38.078,34.205-63.683 c0-27.179-14.64-52.535-38.205-66.173c-2.484-1.438-5.547-1.438-8.032,0c-23.566,13.637-38.206,38.993-38.206,66.172 c0,25.604,12.997,49.587,34.205,63.683v86.238l-25.344-25.345c5.029-24.964-2.74-51.112-20.845-69.217 c-19.219-19.218-47.498-26.796-73.807-19.776c-2.773,0.74-4.939,2.906-5.679,5.679c-7.019,26.307,0.558,54.588,19.776,73.807 c14.479,14.479,34.101,22.351,54.149,22.351c5.021,0,10.068-0.498,15.068-1.506l36.682,36.681v14.317H84.977 c-4.427,0-8.017,3.589-8.017,8.017c0,28.339,6.43,55.447,19.113,80.572c1.996,3.953,6.817,5.54,10.769,3.544 c3.953-1.995,5.54-6.816,3.544-10.769c-10.34-20.484-16.114-42.428-17.203-65.331h91.087l23.305,23.305 c0.88,0.88,1.953,1.543,3.134,1.937l20.171,6.724v35.991l-7.56,30.241l-23.074,15.382c-2.819,1.879-4.153,5.327-3.331,8.614 l5.975,23.903c-27.143-9.352-51.641-25.815-70.774-48.164c-2.879-3.364-7.941-3.756-11.304-0.877 c-3.363,2.88-3.756,7.94-0.877,11.304C154.031,489.16,203.623,512,256,512c98.723,0,179.04-80.317,179.04-179.04 C435.04,328.533,431.45,324.944,427.023,324.944z M358.579,241.764c-11.571,11.571-27.306,17.786-43.339,17.641l60.978-60.978 C376.363,214.461,370.148,230.194,358.579,241.764z M321.542,204.728c11.571-11.571,27.305-17.787,43.339-17.641l-60.979,60.979 C303.758,232.032,309.973,216.299,321.542,204.728z M264.017,94.913c11.44,11.236,18.171,26.755,18.171,43.118 c0,16.364-6.731,31.883-18.171,43.118V94.913z M153.422,241.764c-11.571-11.571-17.784-27.304-17.64-43.338l60.978,60.978 C180.726,259.549,164.992,253.335,153.422,241.764z M147.119,187.088c16.033-0.143,31.768,6.07,43.338,17.64 c11.571,11.571,17.784,27.304,17.64,43.338L147.119,187.088z M399.118,340.977l-20.52,20.52c-1.504,1.503-2.348,3.542-2.348,5.668 v23.76l-14.771,29.542l-14.898,4.966l-5.604-16.814v-32.904c0-3.821-2.697-7.111-6.444-7.861l-37.781-7.556l-4.83-19.322H399.118z M229.812,138.032c0-16.363,6.731-31.882,18.171-43.118v86.236C236.543,169.915,229.812,154.395,229.812,138.032z M256,495.967 c-11.997,0-23.833-1.319-35.326-3.867l-6.833-27.336l20.952-13.968c1.66-1.106,2.848-2.791,3.331-4.726l8.551-34.205 c0.159-0.636,0.239-1.289,0.239-1.944v-42.756c0-3.45-2.208-6.514-5.481-7.605l-23.858-7.953l-10.631-10.63h68.45l7.033,28.132 c0.751,3.006,3.167,5.309,6.205,5.917l36.311,7.261v27.633c0,0.862,0.139,1.718,0.411,2.535l8.551,25.653 c1.12,3.36,4.248,5.484,7.604,5.483c0.84,0,1.695-0.134,2.536-0.414l25.653-8.551c2.017-0.672,3.684-2.119,4.635-4.02 l17.102-34.205c0.557-1.114,0.847-2.34,0.847-3.585v-22.333l26.334-26.334C412.847,428.833,342.12,495.967,256,495.967z"/> </g> </g> <g> <g> <path d="M435.574,34.205c-23.28,0-42.221,18.941-42.221,42.221c0,23.28,18.941,42.221,42.221,42.221 c23.281,0,42.221-18.941,42.221-42.221C477.795,53.145,458.855,34.205,435.574,34.205z M435.574,102.614 c-14.44,0-26.188-11.748-26.188-26.188s11.748-26.188,26.188-26.188c14.44,0,26.188,11.748,26.188,26.188 S450.014,102.614,435.574,102.614z"/> </g> </g> <g> <g> <path d="M435.574,0c-4.427,0-8.017,3.589-8.017,8.017v8.551c0,4.427,3.589,8.017,8.017,8.017c4.427,0,8.017-3.589,8.017-8.017 V8.017C443.591,3.589,440.001,0,435.574,0z"/> </g> </g> <g> <g> <path d="M473.787,10.24c-3.834-2.215-8.737-0.9-10.951,2.934l-4.276,7.405c-2.214,3.834-0.9,8.737,2.934,10.951 c3.787,2.187,8.768,0.847,10.951-2.934l4.276-7.405C478.935,17.357,477.621,12.454,473.787,10.24z"/> </g> </g> <g> <g> <path d="M501.76,38.213c-2.214-3.834-7.117-5.148-10.951-2.934l-7.405,4.276c-2.982,1.722-4.557,5.27-3.829,8.636 c0.791,3.649,4.112,6.325,7.845,6.325c1.36,0,2.739-0.346,4.001-1.075l7.405-4.276C502.66,46.95,503.974,42.047,501.76,38.213z"/> </g> </g> <g> <g> <path d="M503.983,68.409h-8.551c-4.427,0-8.017,3.589-8.017,8.017s3.589,8.017,8.017,8.017h8.551c4.427,0,8.017-3.589,8.017-8.017 S508.411,68.409,503.983,68.409z"/> </g> </g> <g> <g> <path d="M498.827,103.688l-7.405-4.276c-3.834-2.215-8.737-0.9-10.951,2.934s-0.9,8.737,2.934,10.951l7.405,4.276 c4.09,2.362,9.464,0.581,11.355-3.733C503.783,110.149,502.315,105.701,498.827,103.688z"/> </g> </g> <g> <g> <path d="M476.722,131.662l-4.277-7.405c-2.214-3.835-7.118-5.149-10.951-2.934c-3.834,2.214-5.148,7.117-2.934,10.951l4.276,7.405 c2.356,4.081,7.897,5.242,11.7,2.446C477.784,139.736,478.735,135.15,476.722,131.662z"/> </g> </g> <g> <g> <path d="M409.654,121.323c-3.834-2.215-8.737-0.9-10.951,2.934l-4.276,7.405c-3.022,5.233,0.855,12.026,6.935,12.026 c2.771,0,5.465-1.439,6.95-4.009l4.276-7.405C414.801,128.439,413.488,123.536,409.654,121.323z"/> </g> </g> <g> <g> <path d="M390.677,102.348c-2.214-3.836-7.116-5.149-10.951-2.935l-7.405,4.276c-3.488,2.013-4.956,6.461-3.338,10.153 c1.891,4.314,7.265,6.095,11.355,3.733l7.405-4.276C391.577,111.085,392.891,106.182,390.677,102.348z"/> </g> </g> <g> <g> <path d="M375.716,68.409h-8.551c-4.369,0-8.017,3.648-8.017,8.017c0,4.369,3.648,8.017,8.017,8.017h8.551 c4.427,0,8.017-3.589,8.017-8.017S380.143,68.409,375.716,68.409z"/> </g> </g> <g> <g> <path d="M387.743,39.553l-7.405-4.276c-3.835-2.215-8.737-0.9-10.951,2.934c-2.214,3.834-0.9,8.738,2.934,10.952l7.405,4.276 c4.09,2.362,9.464,0.581,11.355-3.733C392.7,46.016,391.231,41.567,387.743,39.553z"/> </g> </g> <g> <g> <path d="M412.589,20.578l-4.276-7.405c-2.214-3.834-7.118-5.148-10.951-2.934c-3.834,2.214-5.148,7.117-2.934,10.951l4.274,7.405 c2.356,4.081,7.897,5.242,11.7,2.446C413.65,28.653,414.601,24.066,412.589,20.578z"/> </g> </g> <g> <g> <path d="M435.574,128.267c-4.427,0-8.017,3.589-8.017,8.017v8.551c0,4.427,3.589,8.017,8.017,8.017 c4.427,0,8.017-3.589,8.017-8.017v-8.551C443.591,131.857,440.001,128.267,435.574,128.267z"/> </g> </g> <g> <g> <path d="M196.142,0c-18.542,0-34.786,9.996-43.648,24.877c-7.732-9.925-19.785-16.326-33.312-16.326 c-23.281,0-42.221,18.941-42.221,42.221c0,4.427,3.589,8.017,8.017,8.017h153.921c4.427,0,8.017-3.589,8.017-8.017 C246.914,22.777,224.137,0,196.142,0z M94.249,42.756c3.394-10.532,13.287-18.171,24.933-18.171 c11.646,0,21.539,7.639,24.933,18.171H94.249z M162.336,42.756c3.629-15.303,17.409-26.722,33.806-26.722 s30.177,11.419,33.805,26.722H162.336z"/> </g> </g> <g> <g> <path d="M119.182,85.511c-18.542,0-34.786,9.996-43.648,24.877c-7.732-9.925-19.785-16.326-33.312-16.326 C18.941,94.063,0,113.003,0,136.284c0,4.427,3.589,8.017,8.017,8.017h153.921c4.427,0,8.017-3.589,8.017-8.017 C169.954,108.289,147.177,85.511,119.182,85.511z M17.288,128.267c3.394-10.532,13.289-18.171,24.933-18.171 s21.539,7.639,24.933,18.171H17.288z M85.377,128.267c3.628-15.303,17.408-26.722,33.805-26.722 c16.397,0,30.177,11.419,33.805,26.722H85.377z"/> </g> </g> </g>
</svg>