<!DOCTYPE svg PUBLIC "-//W3C//DTD SVG 1.1//EN" "http://www.w3.org/Graphics/SVG/1.1/DTD/svg11.dtd">
<!-- Uploaded to: SVG Repo, www.svgrepo.com, Transformed by: SVG Repo Mixer Tools -->
<svg width="800px" height="800px" viewBox="0 0 64 64" xmlns="http://www.w3.org/2000/svg" xmlns:xlink="http://www.w3.org/1999/xlink" aria-hidden="true" role="img" class="iconify iconify--emojione-monotone" preserveAspectRatio="xMidYMid meet" fill="#dddddd" stroke="#dddddd">
<g id="SVGRepo_bgCarrier" stroke-width="0"/>
<g id="SVGRepo_tracerCarrier" stroke-linecap="round" stroke-linejoin="round"/>
<g id="SVGRepo_iconCarrier">
<path d="M62 32C62 15.432 48.569 2.001 32.001 2H32C15.432 2 2 15.432 2 32s13.432 30 30 30h.001C48.569 61.999 62 48.568 62 32M32 60c-.241 0-.479-.012-.72-.019c-.748-4.34-1.279-15.228-1.279-27.981s.531-23.641 1.279-27.981c.241-.007.479-.019.72-.019c15.465 0 28 12.536 28 28S47.465 60 32 60" fill="#dddddd"/>
</g>
</svg>